<svg xmlns="http://www.w3.org/2000/svg" viewBox="0 0 512 512" width="512" height="512">
    <path d="M390 60 l15 45 45 15 -45 15 -15 45 -15 -45 -45 -15 45 -15 z" fill="#FFC107" stroke="#000" stroke-width="16" stroke-linejoin="round"></path>
    
    <path d="M120 380 l12 36 36 12 -36 12 -12 36 -12 -36 -36 -12 36 -12 z" fill="#FFC107" stroke="#000" stroke-width="16" stroke-linejoin="round"></path>
    
    <path d="M256 160 C100 160 32 256 32 256 C32 256 100 352 256 352 C412 352 480 256 480 256 C480 256 412 160 256 160 Z" fill="#BBDEFB" stroke="#000" stroke-width="24" stroke-linejoin="round"></path>
    
    <circle cx="256" cy="256" r="70" fill="#8D6E63" stroke="#000" stroke-width="24"></circle>
    
    <circle cx="280" cy="230" r="20" fill="#F8BBD0" stroke="#000" stroke-width="12"></circle>
</svg>